<svg width="24" height="32" viewBox="0 0 24 32" fill="none" xmlns="http://www.w3.org/2000/svg">
<path fill-rule="evenodd" clip-rule="evenodd" d="M11.4685 13.8432C11.5382 13.7716 11.6209 13.7148 11.712 13.676C11.8032 13.6373 11.9008 13.6173 11.9995 13.6173C12.0981 13.6173 12.1958 13.6373 12.2869 13.676C12.378 13.7148 12.4608 13.7716 12.5305 13.8432L21.5305 23.0682C21.6713 23.2125 21.7504 23.4083 21.7504 23.6124C21.7504 23.8166 21.6713 24.0124 21.5305 24.1567C21.3897 24.3011 21.1986 24.3822 20.9995 24.3822C20.8003 24.3822 20.6093 24.3011 20.4685 24.1567L11.9995 15.4744L3.53048 24.1567C3.38965 24.3011 3.19865 24.3822 2.99948 24.3822C2.80032 24.3822 2.60931 24.3011 2.46848 24.1567C2.32765 24.0124 2.24854 23.8166 2.24854 23.6124C2.24854 23.4083 2.32765 23.2125 2.46848 23.0682L11.4685 13.8432Z" fill="#0A5ACA"/>
<path fill-rule="evenodd" clip-rule="evenodd" d="M11.4685 7.69313C11.5382 7.62154 11.6209 7.56474 11.712 7.52599C11.8032 7.48723 11.9008 7.46729 11.9995 7.46729C12.0981 7.46729 12.1958 7.48723 12.2869 7.52599C12.378 7.56474 12.4608 7.62154 12.5305 7.69313L21.5305 16.9181C21.6713 17.0625 21.7504 17.2583 21.7504 17.4624C21.7504 17.6666 21.6713 17.8623 21.5305 18.0067C21.3897 18.151 21.1986 18.2321 20.9995 18.2321C20.8003 18.2321 20.6093 18.151 20.4685 18.0067L11.9995 9.32442L3.53048 18.0067C3.38965 18.151 3.19865 18.2321 2.99948 18.2321C2.80032 18.2321 2.60931 18.151 2.46848 18.0067C2.32765 17.8623 2.24854 17.6666 2.24854 17.4624C2.24854 17.2583 2.32765 17.0625 2.46848 16.9181L11.4685 7.69313Z" fill="#0A5ACA"/>
</svg>
